{
  "accessors": [
    {
      "bufferView": 2,
      "componentType": 5126,
      "count": 1275,
      "max": [
        0.7249860167503357,
        0.7249860167503357,
        3.5032248497009277
      ],
      "min": [
        -0.7249860167503357,
        -0.7249860167503357,
        0.001734614372253418
      ],
      "type": "VEC3"
    },
    {
      "bufferView": 2,
      "byteOffset": 15300,
      "componentType": 5126,
      "count": 1275,
      "max": [
        1.0,
        1.0,
        1.0
      ],
      "min": [
        -1.0,
        -1.0,
        -1.0
      ],
      "type": "VEC3"
    },
    {
      "bufferView": 1,
      "componentType": 5126,
      "count": 1275,
      "max": [
        2.1011734008789063,
        2.0520496368408203
      ],
      "min": [
        -1.1011732816696167,
        -1.0754287242889404
      ],
      "type": "VEC2"
    },
    {
      "bufferView": 1,
      "byteOffset": 10200,
      "componentType": 5126,
      "count": 1275,
      "max": [
        2.1011734008789063,
        2.0520496368408203
      ],
      "min": [
        -1.1011732816696167,
        -1.0754287242889404
      ],
      "type": "VEC2"
    },
    {
      "bufferView": 1,
      "byteOffset": 20400,
      "componentType": 5126,
      "count": 1275,
      "max": [
        2.1011734008789063,
        2.0520496368408203
      ],
      "min": [
        -1.1011732816696167,
        -1.0754287242889404
      ],
      "type": "VEC2"
    },
    {
      "bufferView": 0,
      "componentType": 5125,
      "count": 2673,
      "type": "SCALAR"
    },
    {
      "bufferView": 2,
      "byteOffset": 30600,
      "componentType": 5126,
      "count": 1148,
      "max": [
        0.367644727230072,
        0.367644727230072,
        1.7297942638397217
      ],
      "min": [
        -0.367644727230072,
        -0.367644727230072,
        1.6265039443969727
      ],
      "type": "VEC3"
    },
    {
      "bufferView": 2,
      "byteOffset": 44376,
      "componentType": 5126,
      "count": 1148,
      "max": [
        1.0,
        1.0,
        1.0
      ],
      "min": [
        -1.0,
        -1.0,
        -0.8821602463722229
      ],
      "type": "VEC3"
    },
    {
      "bufferView": 1,
      "byteOffset": 30600,
      "componentType": 5126,
      "count": 1148,
      "max": [
        2.040492057800293,
        1.6900548934936523
      ],
      "min": [
        -0.3409258723258972,
        -1.0632870197296143
      ],
      "type": "VEC2"
    },
    {
      "bufferView": 0,
      "byteOffset": 10692,
      "componentType": 5125,
      "count": 2160,
      "type": "SCALAR"
    },
    {
      "bufferView": 2,
      "byteOffset": 58152,
      "componentType": 5126,
      "count": 1252,
      "max": [
        1.8558095693588257,
        13.517090797424316,
        1.4298396110534668
      ],
      "min": [
        -1.855810523033142,
        -1.744594693183899,
        -1.0781136751174927
      ],
      "type": "VEC3"
    },
    {
      "bufferView": 2,
      "byteOffset": 73176,
      "componentType": 5126,
      "count": 1252,
      "max": [
        1.0,
        1.0,
        1.0
      ],
      "min": [
        -1.0,
        -1.0,
        -1.0
      ],
      "type": "VEC3"
    },
    {
      "bufferView": 1,
      "byteOffset": 39784,
      "componentType": 5126,
      "count": 1252,
      "max": [
        0.75,
        0.875
      ],
      "min": [
        0.0,
        0.0
      ],
      "type": "VEC2"
    },
    {
      "bufferView": 0,
      "byteOffset": 19332,
      "componentType": 5125,
      "count": 2448,
      "type": "SCALAR"
    },
    {
      "bufferView": 2,
      "byteOffset": 88200,
      "componentType": 5126,
      "count": 1683,
      "max": [
        6.1199259757995605,
        0.7145107388496399,
        0.008138726465404034
      ],
      "min": [
        -6.119549751281738,
        -1.6566526889801025,
        -12.230962753295898
      ],
      "type": "VEC3"
    },
    {
      "bufferView": 2,
      "byteOffset": 108396,
      "componentType": 5126,
      "count": 1683,
      "max": [
        1.0,
        1.0,
        1.0
      ],
      "min": [
        -1.0,
        -1.0,
        -1.0
      ],
      "type": "VEC3"
    },
    {
      "bufferView": 1,
      "byteOffset": 49800,
      "componentType": 5126,
      "count": 1683,
      "max": [
        1.0,
        1.0
      ],
      "min": [
        0.0,
        0.0
      ],
      "type": "VEC2"
    },
    {
      "bufferView": 0,
      "byteOffset": 29124,
      "componentType": 5125,
      "count": 2832,
      "type": "SCALAR"
    },
    {
      "bufferView": 2,
      "byteOffset": 128592,
      "componentType": 5126,
      "count": 1447,
      "max": [
        1.0,
        1.0,
        2.710590362548828
      ],
      "min": [
        -1.0,
        -1.0,
        -0.06432175636291504
      ],
      "type": "VEC3"
    },
    {
      "bufferView": 2,
      "byteOffset": 145956,
      "componentType": 5126,
      "count": 1447,
      "max": [
        1.0,
        1.0,
        1.0
      ],
      "min": [
        -1.0,
        -1.0,
        -1.0
      ],
      "type": "VEC3"
    },
    {
      "bufferView": 1,
      "byteOffset": 63264,
      "componentType": 5126,
      "count": 1447,
      "max": [
        0.75,
        0.875
      ],
      "min": [
        0.0,
        0.0
      ],
      "type": "VEC2"
    },
    {
      "bufferView": 1,
      "byteOffset": 74840,
      "componentType": 5126,
      "count": 1447,
      "max": [
        0.75,
        0.875
      ],
      "min": [
        0.0,
        0.0
      ],
      "type": "VEC2"
    },
    {
      "bufferView": 1,
      "byteOffset": 86416,
      "componentType": 5126,
      "count": 1447,
      "max": [
        0.75,
        0.875
      ],
      "min": [
        0.0,
        0.0
      ],
      "type": "VEC2"
    },
    {
      "bufferView": 0,
      "byteOffset": 40452,
      "componentType": 5125,
      "count": 5427,
      "type": "SCALAR"
    },
    {
      "bufferView": 2,
      "byteOffset": 163320,
      "componentType": 5126,
      "count": 971,
      "max": [
        1.0,
        1.0,
        2.4552416801452637
      ],
      "min": [
        -1.0,
        -1.0,
        0.9134981632232666
      ],
      "type": "VEC3"
    },
    {
      "bufferView": 2,
      "byteOffset": 174972,
      "componentType": 5126,
      "count": 971,
      "max": [
        1.0,
        1.0,
        1.0
      ],
      "min": [
        -1.0,
        -1.0,
        -1.0
      ],
      "type": "VEC3"
    },
    {
      "bufferView": 1,
      "byteOffset": 97992,
      "componentType": 5126,
      "count": 971,
      "max": [
        0.6250000596046448,
        0.8750000596046448
      ],
      "min": [
        0.375,
        0.7643377184867859
      ],
      "type": "VEC2"
    },
    {
      "bufferView": 0,
      "byteOffset": 62160,
      "componentType": 5125,
      "count": 2244,
      "type": "SCALAR"
    },
    {
      "bufferView": 2,
      "byteOffset": 186624,
      "componentType": 5126,
      "count": 5704,
      "max": [
        2.0479836463928223,
        2.055042266845703,
        1.7802350521087646
      ],
      "min": [
        -2.0479824542999268,
        -2.040924310684204,
        -0.27669572830200195
      ],
      "type": "VEC3"
    },
    {
      "bufferView": 2,
      "byteOffset": 255072,
      "componentType": 5126,
      "count": 5704,
      "max": [
        1.0,
        1.0,
        0.9997678995132446
      ],
      "min": [
        -1.0,
        -1.0,
        -0.9997678995132446
      ],
      "type": "VEC3"
    },
    {
      "bufferView": 1,
      "byteOffset": 105760,
      "componentType": 5126,
      "count": 5704,
      "max": [
        0.875,
        1.0
      ],
      "min": [
        0.125,
        -0.01954905316233635
      ],
      "type": "VEC2"
    },
    {
      "bufferView": 0,
      "byteOffset": 71136,
      "componentType": 5125,
      "count": 17280,
      "type": "SCALAR"
    },
    {
      "bufferView": 2,
      "byteOffset": 323520,
      "componentType": 5126,
      "count": 280,
      "max": [
        1.5392194986343384,
        1.5440183877944946,
        13.024149894714355
      ],
      "min": [
        -1.5408382415771484,
        -1.535811424255371,
        0.48247745633125305
      ],
      "type": "VEC3"
    },
    {
      "bufferView": 2,
      "byteOffset": 326880,
      "componentType": 5126,
      "count": 280,
      "max": [
        0.9964642524719238,
        0.9957838654518127,
        0.36571037769317627
      ],
      "min": [
        -0.9969836473464966,
        -0.996440052986145,
        -0.26745671033859253
      ],
      "type": "VEC3"
    },
    {
      "bufferView": 1,
      "byteOffset": 151392,
      "componentType": 5126,
      "count": 280,
      "max": [
        2.3938894271850586,
        1.0000001192092896
      ],
      "min": [
        0.0,
        0.0
      ],
      "type": "VEC2"
    },
    {
      "bufferView": 0,
      "byteOffset": 140256,
      "componentType": 5125,
      "count": 1536,
      "type": "SCALAR"
    },
    {
      "bufferView": 2,
      "byteOffset": 330240,
      "componentType": 5126,
      "count": 4030,
      "max": [
        20.153249740600586,
        11.40197467803955,
        2.6592726707458496
      ],
      "min": [
        -20.153249740600586,
        -11.40197467803955,
        -2.0997262001037598
      ],
      "type": "VEC3"
    },
    {
      "bufferView": 2,
      "byteOffset": 378600,
      "componentType": 5126,
      "count": 4030,
      "max": [
        1.0,
        1.0,
        0.9998857975006104
      ],
      "min": [
        -1.0,
        -1.0,
        -0.9998857378959656
      ],
      "type": "VEC3"
    },
    {
      "bufferView": 1,
      "byteOffset": 153632,
      "componentType": 5126,
      "count": 4030,
      "max": [
        0.499111533164978,
        0.875
      ],
      "min": [
        0.25,
        0.3749999701976776
      ],
      "type": "VEC2"
    },
    {
      "bufferView": 0,
      "byteOffset": 146400,
      "componentType": 5125,
      "count": 6144,
      "type": "SCALAR"
    }
  ],
  "asset": {
    "extras": {
      "author": "Djonk (https://sketchfab.com/Djonk)",
      "license": "CC-BY-NC-ND-4.0 (http://creativecommons.org/licenses/by-nc-nd/4.0/)",
      "source": "https://sketchfab.com/3d-models/tugu-jogja-c3ab136a6fb643c09c1a4fc30402dafd",
      "title": "Tugu Jogja"
    },
    "generator": "Sketchfab-15.10.0",
    "version": "2.0"
  },
  "bufferViews": [
    {
      "buffer": 0,
      "byteLength": 170976,
      "name": "floatBufferViews",
      "target": 34963
    },
    {
      "buffer": 0,
      "byteLength": 185872,
      "byteOffset": 170976,
      "byteStride": 8,
      "name": "floatBufferViews",
      "target": 34962
    },
    {
      "buffer": 0,
      "byteLength": 426960,
      "byteOffset": 356848,
      "byteStride": 12,
      "name": "floatBufferViews",
      "target": 34962
    }
  ],
  "buffers": [
    {
      "byteLength": 783808,
      "uri": "scene.bin"
    }
  ],
  "extensionsUsed": [
    "KHR_materials_specular"
  ],
  "images": [
    {
      "uri": "textures/Material_baseColor.png"
    }
  ],
  "materials": [
    {
      "doubleSided": true,
      "name": "Plane__0",
      "pbrMetallicRoughness": {
        "metallicFactor": 0.0,
        "roughnessFactor": 0.6
      }
    },
    {
      "doubleSided": true,
      "name": "Material",
      "pbrMetallicRoughness": {
        "baseColorTexture": {
          "index": 0
        },
        "metallicFactor": 0.0,
        "roughnessFactor": 0.8211145618000169
      }
    },
    {
      "doubleSided": true,
      "extensions": {
        "KHR_materials_specular": {
          "specularColorFactor": [
            1.0,
            1.0,
            1.0
          ],
          "specularFactor": 0.7284574977271286
        }
      },
      "name": "Material.001",
      "pbrMetallicRoughness": {
        "baseColorFactor": [
          0.8092242259246366,
          0.6215106117366171,
          0.0004352219966335627,
          1.0
        ],
        "metallicFactor": 0.710238468558463,
        "roughnessFactor": 0.24725046338131706
      }
    }
  ],
  "meshes": [
    {
      "name": "Cube_Material_0",
      "primitives": [
        {
          "attributes": {
            "NORMAL": 1,
            "POSITION": 0,
            "TEXCOORD_0": 2,
            "TEXCOORD_1": 3,
            "TEXCOORD_2": 4
          },
          "indices": 5,
          "material": 1,
          "mode": 4
        }
      ]
    },
    {
      "name": "Cube_Material.001_0",
      "primitives": [
        {
          "attributes": {
            "NORMAL": 7,
            "POSITION": 6,
            "TEXCOORD_0": 8
          },
          "indices": 9,
          "material": 2,
          "mode": 4
        }
      ]
    },
    {
      "name": "Cube.001_Material.001_0",
      "primitives": [
        {
          "attributes": {
            "NORMAL": 11,
            "POSITION": 10,
            "TEXCOORD_0": 12
          },
          "indices": 13,
          "material": 2,
          "mode": 4
        }
      ]
    },
    {
      "name": "Plane__0",
      "primitives": [
        {
          "attributes": {
            "NORMAL": 15,
            "POSITION": 14,
            "TEXCOORD_0": 16
          },
          "indices": 17,
          "material": 0,
          "mode": 4
        }
      ]
    },
    {
      "name": "Cube.002_Material_0",
      "primitives": [
        {
          "attributes": {
            "NORMAL": 19,
            "POSITION": 18,
            "TEXCOORD_0": 20,
            "TEXCOORD_1": 21,
            "TEXCOORD_2": 22
          },
          "indices": 23,
          "material": 1,
          "mode": 4
        }
      ]
    },
    {
      "name": "Cube.002_Material.001_0",
      "primitives": [
        {
          "attributes": {
            "NORMAL": 25,
            "POSITION": 24,
            "TEXCOORD_0": 26
          },
          "indices": 27,
          "material": 2,
          "mode": 4
        }
      ]
    },
    {
      "name": "Cube.003_Material.001_0",
      "primitives": [
        {
          "attributes": {
            "NORMAL": 29,
            "POSITION": 28,
            "TEXCOORD_0": 30
          },
          "indices": 31,
          "material": 2,
          "mode": 4
        }
      ]
    },
    {
      "name": "Plane.001_Material.001_0",
      "primitives": [
        {
          "attributes": {
            "NORMAL": 33,
            "POSITION": 32,
            "TEXCOORD_0": 34
          },
          "indices": 35,
          "material": 2,
          "mode": 4
        }
      ]
    },
    {
      "name": "Cube.005_Material.001_0",
      "primitives": [
        {
          "attributes": {
            "NORMAL": 37,
            "POSITION": 36,
            "TEXCOORD_0": 38
          },
          "indices": 39,
          "material": 2,
          "mode": 4
        }
      ]
    }
  ],
  "nodes": [
    {
      "children": [
        1
      ],
      "matrix": [
        1.0,
        0.0,
        0.0,
        0.0,
        0.0,
        3.828568672208042e-16,
        -1.0,
        0.0,
        0.0,
        1.0,
        3.828568672208042e-16,
        0.0,
        0.0,
        0.0,
        0.0,
        1.0
      ],
      "name": "Sketchfab_model"
    },
    {
      "children": [
        2
      ],
      "matrix": [
        0.009999999776482582,
        0.0,
        0.0,
        0.0,
        0.0,
        0.0,
        0.009999999776482582,
        0.0,
        0.0,
        -0.009999999776482582,
        0.0,
        0.0,
        0.0,
        0.0,
        0.0,
        1.0
      ],
      "name": "Tugu Jogja.fbx"
    },
    {
      "children": [
        3,
        17
      ],
      "name": "RootNode"
    },
    {
      "children": [
        4,
        5,
        6,
        8,
        10,
        13,
        15
      ],
      "matrix": [
        100.0,
        0.0,
        0.0,
        0.0,
        0.0,
        -1.629206793918314e-05,
        -99.99999999999868,
        0.0,
        0.0,
        99.99999999999868,
        -1.629206793918314e-05,
        0.0,
        0.0,
        0.0,
        0.0,
        1.0
      ],
      "name": "Cube"
    },
    {
      "mesh": 0,
      "name": "Cube_Material_0"
    },
    {
      "mesh": 1,
      "name": "Cube_Material.001_0"
    },
    {
      "children": [
        7
      ],
      "matrix": [
        0.1809261292219162,
        0.0,
        0.0,
        0.0,
        0.0,
        0.04400097206234932,
        -8.271806125530274e-25,
        0.0,
        0.0,
        3.401256367349495e-24,
        0.1809261292219162,
        0.0,
        0.0,
        -0.2588919699192047,
        1.1243882179260254,
        1.0
      ],
      "name": "Cube.001"
    },
    {
      "mesh": 2,
      "name": "Cube.001_Material.001_0"
    },
    {
      "children": [
        9
      ],
      "matrix": [
        0.0476684495806694,
        0.0,
        0.0,
        0.0,
        0.0,
        -1.3448698210321278e-08,
        0.04766844958066751,
        0.0,
        0.0,
        -0.04766844958066751,
        -1.3448698210321278e-08,
        0.0,
        0.0,
        -0.2912031412124634,
        1.5325244665145874,
        1.0
      ],
      "name": "Plane"
    },
    {
      "mesh": 3,
      "name": "Plane__0"
    },
    {
      "children": [
        11,
        12
      ],
      "matrix": [
        0.36657941341400146,
        0.0,
        0.0,
        0.0,
        0.0,
        0.36657941341400146,
        0.0,
        0.0,
        0.0,
        0.0,
        0.08374332636594772,
        0.0,
        0.0,
        0.0,
        1.7472642660140991,
        1.0
      ],
      "name": "Cube.002"
    },
    {
      "mesh": 4,
      "name": "Cube.002_Material_0"
    },
    {
      "mesh": 5,
      "name": "Cube.002_Material.001_0"
    },
    {
      "children": [
        14
      ],
      "matrix": [
        0.11632221937179565,
        0.0,
        0.0,
        0.0,
        0.0,
        0.11632221937179565,
        0.0,
        0.0,
        0.0,
        0.0,
        0.11632221937179565,
        0.0,
        0.0,
        0.0,
        3.056727170944214,
        1.0
      ],
      "name": "Cube.003"
    },
    {
      "mesh": 6,
      "name": "Cube.003_Material.001_0"
    },
    {
      "children": [
        16
      ],
      "matrix": [
        0.02555975876748562,
        0.0,
        0.0,
        0.0,
        0.0,
        0.02555975876748562,
        -8.271806125530274e-25,
        0.0,
        0.0,
        1.4127177285551458e-24,
        0.043652769178152084,
        0.0,
        0.0,
        1.0587911840678754e-22,
        3.469986915588379,
        1.0
      ],
      "name": "Plane.001"
    },
    {
      "mesh": 7,
      "name": "Plane.001_Material.001_0"
    },
    {
      "children": [
        18
      ],
      "matrix": [
        1.173933744430542,
        0.0,
        0.0,
        0.0,
        0.0,
        -3.3805299843318817e-07,
        -2.07495450973508,
        0.0,
        0.0,
        20.047220230102273,
        -3.2661067398059725e-06,
        0.0,
        0.0,
        244.6267547607422,
        0.0,
        1.0
      ],
      "name": "Cube.005"
    },
    {
      "mesh": 8,
      "name": "Cube.005_Material.001_0"
    }
  ],
  "samplers": [
    {
      "magFilter": 9729,
      "minFilter": 9987,
      "wrapS": 10497,
      "wrapT": 10497
    }
  ],
  "scene": 0,
  "scenes": [
    {
      "name": "Sketchfab_Scene",
      "nodes": [
        0
      ]
    }
  ],
  "textures": [
    {
      "sampler": 0,
      "source": 0
    }
  ]
}
